<?xml version="1.0" encoding="UTF-8"?>
<svg width="15px" height="12px" viewBox="0 0 15 12" version="1.1" xmlns="http://www.w3.org/2000/svg" xmlns:xlink="http://www.w3.org/1999/xlink">
    <title>编组备份 12</title>
    <g id="页面-1" stroke="none" stroke-width="1" fill="none" fill-rule="evenodd">
        <g id="画板备份" transform="translate(-72.000000, -47.000000)" fill="#FFFFFF" fill-rule="nonzero">
            <g id="编组备份-12" transform="translate(72.000000, 47.000000)">
                <path d="M10.4821207,0 C11.4205083,0 12.1848372,0.532978715 12.3869347,1.63565493 L13.0201733,3.57507435 C13.0758867,3.54354812 13.139247,3.52611597 13.2033355,3.52500328 L14.6081859,3.52500328 C14.8239878,3.52540872 14.9989994,3.70317099 15,3.92297555 L15,4.26790959 C15,4.37365147 14.9586853,4.47504626 14.8851743,4.54971261 C14.8116633,4.62437896 14.7120008,4.66617751 14.6081859,4.66588186 L14.0885587,4.75563889 C14.2567912,5.09018781 14.352924,5.47184063 14.352924,5.9172877 L14.4499083,7.03396312 C13.8384397,6.70906854 13.1407341,6.525 12.4000446,6.525 C11.2023715,6.525 10.1170682,7.00624697 9.32701442,7.78593366 L9.32707013,7.41088915 C9.32707013,7.23471317 9.18578399,7.0919179 9.01245357,7.0919179 L6.04580875,7.0919179 C5.87247833,7.0919179 5.73119219,7.23471317 5.73119219,7.41126005 L5.73119219,8.30920122 C5.731994,8.4856039 5.87261806,8.62817248 6.04580875,8.62817248 L8.66046872,8.62796515 C8.33817257,9.15729748 8.1251041,9.76045569 8.05256576,10.4061421 L2.92440463,10.4066227 L2.92440463,11.2908407 C2.92421175,11.4792457 2.85049673,11.6598452 2.71949659,11.7928588 C2.58849646,11.9258725 2.41095721,12.0003892 2.225985,12 L1.16087685,12 C0.775253077,12 0.462821353,11.6828786 0.462821353,11.2908407 L0.462821353,8.53767366 C0.463428256,8.4941114 0.46769209,8.45068183 0.475566237,8.40785978 C0.467555167,8.33961476 0.462821353,8.27211154 0.462821353,8.20609191 L0.659820843,5.9176586 C0.654219127,5.51494638 0.744556979,5.11685437 0.92309373,4.75749338 L0.391450004,4.66476917 C0.175151118,4.66476917 0,4.48599691 0,4.2667969 L0,3.92186286 C0,3.81624969 0.0414042607,3.71500664 0.114825892,3.64043124 C0.188247524,3.56585583 0.2877611,3.52406458 0.391450004,3.52426148 L1.79630034,3.52426148 C1.86481736,3.52523945 1.93187698,3.54455389 1.99075086,3.5802669 L2.62581021,1.63454224 C2.79914063,0.714347255 3.45313524,0 4.53098827,0 Z M3.51248999,6.95320249 C3.12887626,6.92467545 2.76037371,7.11085321 2.55055267,7.43920003 C2.34073164,7.76754685 2.32278081,8.18612606 2.50369393,8.53185723 C2.68460705,8.87758841 3.03576794,9.09578508 3.42036268,9.10143681 C3.99150173,9.10982985 4.46566859,8.65413035 4.49059531,8.07288648 C4.51552203,7.49164262 4.08217219,6.99556631 3.51248999,6.95320249 Z M11.1499527,1.33485762 L3.86789018,1.33485762 C3.71495157,1.53069113 3.61190008,1.57668234 3.56565436,1.83037576 L3.55982813,1.8600475 L3.09482194,3.11812948 L2.92076324,3.81986624 C2.95972617,4.33318743 3.56674678,4.73820674 4.07144418,4.73820674 L10.9387517,4.73820674 C11.4423567,4.73820674 12.0493773,4.33318743 12.0887044,3.82023714 L11.915374,3.11924217 L11.4423567,1.82852127 C11.4004807,1.58780924 11.3043478,1.53662548 11.1499527,1.33485762 Z" id="形状结合"></path>
            </g>
        </g>
    </g>
</svg>